<?xml version="1.0" standalone="no"?>
<!DOCTYPE svg PUBLIC "-//W3C//DTD SVG 20010904//EN"
 "http://www.w3.org/TR/2001/REC-SVG-20010904/DTD/svg10.dtd">
<svg version="1.0" xmlns="http://www.w3.org/2000/svg"
 width="71.000000pt" height="51.000000pt" viewBox="0 0 71.000000 51.000000"
 preserveAspectRatio="xMidYMid meet">
<metadata>
Created by potrace 1.16, written by Peter Selinger 2001-2019
</metadata>
<g transform="translate(0.000000,51.000000) scale(0.008304,-0.008486)"
fill="#000000" stroke="none">
<path d="M3865 5993 c42 -107 67 -314 46 -389 -17 -61 -66 -128 -125 -169 -29
-20 -150 -76 -268 -124 -279 -114 -419 -199 -529 -322 l-35 -40 -84 103 c-106
131 -292 315 -395 393 -359 269 -719 338 -1100 211 -97 -33 -292 -123 -283
-131 2 -2 49 -14 103 -26 132 -28 292 -81 368 -121 81 -43 160 -117 187 -175
47 -100 27 -206 -86 -462 -75 -169 -101 -248 -110 -337 -6 -54 -10 -65 -23
-60 -402 137 -761 143 -1086 17 -117 -45 -199 -97 -286 -179 -105 -99 -151
-185 -157 -294 -3 -43 -2 -78 2 -78 4 0 37 15 74 34 94 47 164 66 246 66 176
-1 269 -99 448 -470 103 -213 146 -287 210 -355 22 -25 39 -47 37 -49 -2 -1
-47 -27 -99 -56 -339 -189 -562 -394 -671 -615 -58 -119 -74 -189 -73 -330 0
-126 17 -210 64 -320 l22 -50 20 30 c51 72 164 172 233 205 62 30 81 35 171
38 94 4 113 1 315 -49 186 -45 228 -52 319 -53 l106 -1 -29 -59 c-42 -88 -84
-219 -102 -320 -19 -114 -19 -318 0 -432 62 -351 283 -657 498 -689 79 -12 80
-7 28 97 -88 176 -93 280 -20 382 59 81 150 131 419 228 206 75 324 135 387
197 l49 48 26 -101 c65 -248 187 -455 384 -651 243 -242 603 -425 836 -425 69
0 128 19 128 42 0 6 -40 53 -90 104 -204 211 -263 381 -186 538 15 30 67 107
117 173 50 65 102 141 116 168 14 28 34 57 45 66 13 10 18 21 13 29 -5 7 -9
54 -9 104 -1 50 -8 111 -16 136 l-14 45 -12 -78 c-7 -43 -18 -94 -25 -115 -23
-72 -90 -189 -183 -314 -105 -143 -152 -226 -172 -302 -32 -120 -3 -247 86
-377 l40 -59 -50 20 c-278 110 -551 341 -723 613 -98 153 -181 351 -222 527
-15 63 -29 121 -31 129 -3 7 -16 -8 -30 -34 -41 -78 -80 -130 -134 -178 -96
-86 -193 -128 -469 -202 -186 -49 -269 -91 -357 -179 -51 -51 -81 -92 -107
-146 l-36 -75 -29 65 c-111 244 -119 498 -27 778 34 103 131 298 198 400 30
45 51 82 46 82 -4 0 -54 -11 -111 -26 -124 -30 -299 -41 -414 -26 -45 6 -160
29 -255 51 -290 67 -395 64 -565 -18 l-81 -39 12 67 c49 255 259 507 600 718
93 58 420 223 443 223 27 0 9 18 -30 30 -126 37 -249 134 -334 261 -24 36 -84
149 -134 251 -49 101 -111 218 -138 259 -61 92 -145 172 -216 205 -54 25 -169
54 -216 54 -21 0 -22 2 -10 15 34 33 179 106 268 134 190 60 376 80 567 61
179 -18 316 -56 520 -146 6 -3 10 37 10 108 0 129 8 159 126 454 88 221 112
319 107 439 -3 63 -11 104 -26 138 -41 93 -164 188 -305 236 l-52 18 60 13
c94 21 264 17 369 -9 293 -71 547 -273 859 -683 62 -81 115 -147 119 -147 4
-1 28 32 54 71 83 129 215 243 369 321 28 13 124 52 215 86 235 89 285 114
357 186 78 78 103 148 103 294 l1 96 39 -45 c106 -121 201 -289 236 -420 10
-36 19 -67 21 -70 8 -9 23 26 24 55 l1 30 9 -30 c20 -70 29 -218 19 -324 -13
-130 -70 -373 -117 -499 -6 -14 -4 -15 9 -4 21 17 81 158 111 263 87 300 48
632 -110 919 -107 197 -292 370 -394 370 -26 0 -30 -3 -24 -17z"/>
<path d="M2675 4349 c-106 -10 -224 -38 -291 -71 -46 -22 -48 -25 -69 -98 -29
-97 -39 -160 -27 -160 5 0 38 13 73 29 138 62 384 129 644 175 83 15 161 29
175 32 l25 6 -26 14 c-45 23 -194 62 -261 69 -127 12 -155 12 -243 4z"/>
<path d="M4320 3795 l0 -515 70 0 70 0 0 153 0 152 40 33 40 33 121 -185 122
-186 84 0 c65 0 82 3 77 13 -4 6 -75 113 -158 236 l-150 224 144 138 145 138
-90 1 -90 0 -142 -142 -143 -143 0 283 0 282 -70 0 -70 0 0 -515z"/>
<path d="M6630 3795 l0 -515 70 0 70 0 0 153 0 154 40 32 40 32 121 -185 121
-186 79 0 c50 0 79 4 79 11 0 6 -69 112 -152 236 l-153 226 145 138 145 138
-90 1 -90 0 -142 -142 -143 -143 0 283 0 282 -70 0 -70 0 0 -515z"/>
<path d="M3591 4159 c-51 -10 -98 -20 -103 -21 -5 -2 68 -80 162 -173 206
-204 280 -299 363 -467 34 -69 66 -127 71 -127 16 -2 -3 163 -29 255 -48 167
-160 369 -280 502 -53 59 -49 58 -184 31z"/>
<path d="M5263 4040 c-114 -24 -205 -97 -245 -198 -19 -49 -22 -76 -23 -187 0
-123 2 -134 29 -192 33 -72 94 -134 164 -166 39 -18 65 -22 152 -22 92 0 112
3 161 26 71 34 125 87 158 158 34 74 43 250 17 345 -29 106 -116 198 -216 226
-52 15 -149 20 -197 10z m166 -130 c84 -42 125 -126 124 -254 -1 -164 -67
-258 -191 -273 -43 -5 -60 -1 -105 20 -29 15 -62 39 -74 55 -73 98 -70 314 4
403 56 66 166 88 242 49z"/>
<path d="M6087 4036 c-26 -7 -65 -27 -87 -45 l-40 -32 0 36 0 35 -65 0 -65 0
0 -515 0 -515 70 0 70 0 0 170 0 169 51 -32 c42 -25 64 -32 119 -35 78 -5 125
8 193 50 177 112 209 459 58 631 -67 75 -201 112 -304 83z m163 -130 c25 -16
47 -44 66 -82 25 -51 28 -69 28 -153 1 -126 -14 -174 -73 -233 -71 -71 -157
-77 -227 -16 -57 50 -77 100 -82 204 -6 128 14 194 78 256 27 25 59 49 72 51
44 10 99 -1 138 -27z"/>
<path d="M7562 4040 c-112 -21 -192 -82 -223 -172 l-18 -53 22 -6 c12 -3 42
-8 67 -11 l45 -6 25 51 c32 67 70 87 163 87 115 0 167 -35 175 -119 l4 -50
-39 -10 c-22 -6 -100 -20 -174 -31 -92 -14 -151 -28 -187 -46 -154 -75 -159
-296 -9 -377 36 -19 57 -22 147 -22 94 0 111 3 165 28 33 15 67 35 77 44 21
19 29 14 43 -30 10 -32 11 -32 83 -35 39 -2 72 -1 72 1 0 3 -8 22 -17 43 -15
33 -18 83 -23 304 -5 248 -7 268 -27 306 -37 69 -107 101 -237 109 -45 2 -105
0 -134 -5z m256 -460 c-4 -53 -12 -80 -31 -109 -67 -101 -261 -125 -321 -39
-27 38 -20 86 17 123 27 27 45 34 107 45 57 9 193 39 229 49 2 1 1 -30 -1 -69z"/>
<path d="M8364 4036 c-16 -7 -47 -33 -67 -57 l-37 -43 0 47 0 47 -60 0 -60 0
0 -375 0 -375 69 0 70 0 3 258 c3 242 4 259 25 298 14 25 35 48 57 58 42 20
53 20 104 2 l40 -15 22 55 c12 29 20 60 17 68 -6 15 -95 46 -131 46 -12 -1
-35 -7 -52 -14z"/>
<path d="M1895 3693 c-89 -116 -176 -284 -205 -398 -13 -47 -23 -129 -26 -200
l-6 -120 95 -62 c108 -70 107 -71 107 42 0 135 48 465 103 724 14 61 21 111
16 111 -5 0 -42 -44 -84 -97z"/>
<path d="M4330 2245 l0 -795 95 0 95 0 0 63 0 63 53 -52 c122 -117 334 -135
497 -42 176 100 270 293 270 553 0 326 -157 546 -418 586 -130 19 -262 -18
-344 -99 l-38 -36 0 277 0 277 -105 0 -105 0 0 -795z m605 190 c87 -37 152
-127 181 -252 23 -97 14 -284 -17 -373 -31 -90 -120 -181 -198 -204 -68 -20
-94 -20 -161 0 -81 24 -161 108 -189 198 -42 136 -38 323 10 450 34 91 124
174 212 197 41 10 116 3 162 -16z"/>
<path d="M3930 2553 c-162 -192 -372 -393 -570 -548 l-75 -58 41 6 c64 10 191
56 279 100 117 58 228 135 344 238 l103 92 -4 101 c-5 91 -20 156 -38 156 -3
0 -40 -39 -80 -87z"/>
<path d="M5864 2621 c-165 -26 -272 -102 -320 -227 -21 -55 -16 -183 10 -232
53 -103 132 -147 391 -217 218 -59 250 -71 281 -109 22 -25 25 -37 22 -78 -6
-61 -42 -108 -105 -139 -40 -19 -65 -23 -149 -23 -93 -1 -105 1 -160 29 -68
35 -118 99 -129 165 -4 22 -9 40 -11 40 -10 0 -199 -32 -201 -34 -5 -5 27
-109 47 -150 74 -154 253 -236 485 -222 198 12 332 84 402 218 25 47 28 63 28
148 0 111 -16 152 -85 214 -56 50 -100 68 -345 138 -264 75 -294 93 -295 171
0 51 28 90 87 118 65 32 207 33 274 3 55 -26 95 -67 110 -114 6 -19 15 -39 19
-43 4 -5 51 -3 104 4 l97 13 -7 30 c-42 196 -164 283 -419 300 -44 2 -103 1
-131 -3z"/>
<path d="M7132 2619 c-75 -13 -152 -52 -211 -107 l-51 -48 0 68 0 68 -95 0
-95 0 0 -575 0 -575 104 0 105 0 3 383 c3 363 5 385 25 435 32 78 66 117 130
149 109 53 226 34 280 -45 38 -58 43 -115 43 -527 l0 -395 100 0 100 0 0 333
c1 370 8 453 45 526 51 102 183 161 293 131 61 -16 117 -70 131 -125 7 -29 11
-185 11 -454 l0 -411 105 0 105 0 0 423 c0 263 -4 446 -11 482 -28 153 -121
241 -278 266 -143 22 -271 -19 -372 -120 l-59 -60 -14 27 c-21 41 -84 99 -130
121 -39 19 -150 42 -191 40 -11 -1 -44 -5 -73 -10z"/>
<path d="M2061 2343 c67 -99 223 -255 314 -315 71 -47 192 -111 276 -147 l47
-19 88 64 c49 36 90 68 91 72 2 4 -45 24 -104 46 -193 69 -428 185 -657 322
-49 30 -93 54 -98 54 -5 0 14 -35 43 -77z"/>
</g>
</svg>
